<mxfile host="app.diagrams.net" modified="2021-10-12T13:10:09.712Z" agent="5.0 (Windows NT 10.0; Win64; x64) AppleWebKit/537.36 (KHTML, like Gecko) Chrome/94.0.4606.81 Safari/537.36" etag="7-EkKNz74Ew88aTKhVfu" version="15.5.1" type="github">
  <diagram id="prtHgNgQTEPvFCAcTncT" name="Page-1">
    <mxGraphModel dx="1422" dy="762" grid="1" gridSize="10" guides="1" tooltips="1" connect="1" arrows="1" fold="1" page="1" pageScale="1" pageWidth="827" pageHeight="1169" math="0" shadow="0">
      <root>
        <mxCell id="0" />
        <mxCell id="1" parent="0" />
        <mxCell id="o-2NgWkHL0tD22r2cRgy-1" value="" style="swimlane;childLayout=stackLayout;resizeParent=1;resizeParentMax=0;startSize=20;horizontal=0;horizontalStack=1;" vertex="1" parent="1">
          <mxGeometry x="220" y="150" width="510" height="480" as="geometry" />
        </mxCell>
        <mxCell id="o-2NgWkHL0tD22r2cRgy-5" value="Import&#xa;Type" style="swimlane;startSize=30;" vertex="1" parent="o-2NgWkHL0tD22r2cRgy-1">
          <mxGeometry x="20" width="130" height="480" as="geometry" />
        </mxCell>
        <mxCell id="o-2NgWkHL0tD22r2cRgy-6" value="Edi 204 File" style="shape=ext;double=1;rounded=1;whiteSpace=wrap;html=1;" vertex="1" parent="o-2NgWkHL0tD22r2cRgy-5">
          <mxGeometry x="15" y="50" width="100" height="40" as="geometry" />
        </mxCell>
        <mxCell id="o-2NgWkHL0tD22r2cRgy-7" value="Shipment JSON" style="shape=ext;double=1;rounded=1;whiteSpace=wrap;html=1;" vertex="1" parent="o-2NgWkHL0tD22r2cRgy-5">
          <mxGeometry x="15" y="130" width="100" height="40" as="geometry" />
        </mxCell>
        <mxCell id="o-2NgWkHL0tD22r2cRgy-8" value="Shipment XUS" style="shape=ext;double=1;rounded=1;whiteSpace=wrap;html=1;" vertex="1" parent="o-2NgWkHL0tD22r2cRgy-5">
          <mxGeometry x="15" y="300" width="100" height="40" as="geometry" />
        </mxCell>
        <mxCell id="o-2NgWkHL0tD22r2cRgy-9" value="Shipment XLS" style="shape=ext;double=1;rounded=1;whiteSpace=wrap;html=1;" vertex="1" parent="o-2NgWkHL0tD22r2cRgy-5">
          <mxGeometry x="15" y="210" width="100" height="40" as="geometry" />
        </mxCell>
        <mxCell id="o-2NgWkHL0tD22r2cRgy-2" value="SmartHUB" style="swimlane;startSize=30;" vertex="1" parent="o-2NgWkHL0tD22r2cRgy-1">
          <mxGeometry x="150" width="120" height="480" as="geometry" />
        </mxCell>
        <mxCell id="o-2NgWkHL0tD22r2cRgy-11" value="Convert 204&lt;br&gt;to shipment JSON" style="shape=ext;double=1;rounded=1;whiteSpace=wrap;html=1;" vertex="1" parent="o-2NgWkHL0tD22r2cRgy-2">
          <mxGeometry x="10" y="45" width="100" height="50" as="geometry" />
        </mxCell>
        <mxCell id="o-2NgWkHL0tD22r2cRgy-19" value="Convert XLS entries&amp;nbsp;to shipment JSON" style="shape=ext;double=1;rounded=1;whiteSpace=wrap;html=1;" vertex="1" parent="o-2NgWkHL0tD22r2cRgy-2">
          <mxGeometry x="10" y="205" width="100" height="50" as="geometry" />
        </mxCell>
        <mxCell id="o-2NgWkHL0tD22r2cRgy-25" value="" style="edgeStyle=segmentEdgeStyle;endArrow=classic;html=1;rounded=0;exitX=1;exitY=0.5;exitDx=0;exitDy=0;" edge="1" parent="o-2NgWkHL0tD22r2cRgy-2" source="o-2NgWkHL0tD22r2cRgy-9">
          <mxGeometry width="50" height="50" relative="1" as="geometry">
            <mxPoint x="30" y="350" as="sourcePoint" />
            <mxPoint x="10" y="230" as="targetPoint" />
          </mxGeometry>
        </mxCell>
        <mxCell id="o-2NgWkHL0tD22r2cRgy-3" value="Freight API" style="swimlane;startSize=30;" vertex="1" parent="o-2NgWkHL0tD22r2cRgy-1">
          <mxGeometry x="270" width="120" height="480" as="geometry" />
        </mxCell>
        <mxCell id="o-2NgWkHL0tD22r2cRgy-12" value="" style="shape=ext;double=1;rounded=1;whiteSpace=wrap;html=1;" vertex="1" parent="o-2NgWkHL0tD22r2cRgy-3">
          <mxGeometry x="15" y="30" width="90" height="410" as="geometry" />
        </mxCell>
        <mxCell id="o-2NgWkHL0tD22r2cRgy-13" value="Converts Json to CW XUS" style="shape=ext;double=1;rounded=1;whiteSpace=wrap;html=1;" vertex="1" parent="o-2NgWkHL0tD22r2cRgy-3">
          <mxGeometry x="20" y="45" width="80" height="50" as="geometry" />
        </mxCell>
        <mxCell id="o-2NgWkHL0tD22r2cRgy-17" value="Converts Json to CW XUS" style="shape=ext;double=1;rounded=1;whiteSpace=wrap;html=1;" vertex="1" parent="o-2NgWkHL0tD22r2cRgy-3">
          <mxGeometry x="20" y="124" width="80" height="50" as="geometry" />
        </mxCell>
        <mxCell id="o-2NgWkHL0tD22r2cRgy-18" value="Converts Json to CW XUS" style="shape=ext;double=1;rounded=1;whiteSpace=wrap;html=1;" vertex="1" parent="o-2NgWkHL0tD22r2cRgy-3">
          <mxGeometry x="20" y="205" width="80" height="50" as="geometry" />
        </mxCell>
        <mxCell id="o-2NgWkHL0tD22r2cRgy-20" value="Sends directly&lt;br&gt;to&amp;nbsp; CW&amp;nbsp;" style="shape=ext;double=1;rounded=1;whiteSpace=wrap;html=1;" vertex="1" parent="o-2NgWkHL0tD22r2cRgy-3">
          <mxGeometry x="20" y="295" width="80" height="50" as="geometry" />
        </mxCell>
        <mxCell id="o-2NgWkHL0tD22r2cRgy-4" value="Cargowise" style="swimlane;startSize=30;" vertex="1" parent="o-2NgWkHL0tD22r2cRgy-1">
          <mxGeometry x="390" width="120" height="480" as="geometry" />
        </mxCell>
        <mxCell id="o-2NgWkHL0tD22r2cRgy-10" value="Cargowise shipment created" style="shape=ext;double=1;whiteSpace=wrap;html=1;aspect=fixed;" vertex="1" parent="o-2NgWkHL0tD22r2cRgy-4">
          <mxGeometry x="20" y="172" width="80" height="80" as="geometry" />
        </mxCell>
        <mxCell id="o-2NgWkHL0tD22r2cRgy-22" value="" style="edgeStyle=segmentEdgeStyle;endArrow=classic;html=1;rounded=0;exitX=1;exitY=0.5;exitDx=0;exitDy=0;entryX=0;entryY=0.5;entryDx=0;entryDy=0;" edge="1" parent="o-2NgWkHL0tD22r2cRgy-1" source="o-2NgWkHL0tD22r2cRgy-7" target="o-2NgWkHL0tD22r2cRgy-17">
          <mxGeometry width="50" height="50" relative="1" as="geometry">
            <mxPoint x="145" y="80" as="sourcePoint" />
            <mxPoint x="170" y="80" as="targetPoint" />
            <Array as="points">
              <mxPoint x="135" y="149" />
            </Array>
          </mxGeometry>
        </mxCell>
        <mxCell id="o-2NgWkHL0tD22r2cRgy-24" value="" style="edgeStyle=segmentEdgeStyle;endArrow=classic;html=1;rounded=0;exitX=1;exitY=0.5;exitDx=0;exitDy=0;entryX=0;entryY=0.5;entryDx=0;entryDy=0;" edge="1" parent="o-2NgWkHL0tD22r2cRgy-1" source="o-2NgWkHL0tD22r2cRgy-11" target="o-2NgWkHL0tD22r2cRgy-13">
          <mxGeometry width="50" height="50" relative="1" as="geometry">
            <mxPoint x="190" y="180" as="sourcePoint" />
            <mxPoint x="240" y="130" as="targetPoint" />
          </mxGeometry>
        </mxCell>
        <mxCell id="o-2NgWkHL0tD22r2cRgy-26" value="" style="edgeStyle=segmentEdgeStyle;endArrow=classic;html=1;rounded=0;entryX=0;entryY=0.5;entryDx=0;entryDy=0;exitX=1;exitY=0.5;exitDx=0;exitDy=0;" edge="1" parent="o-2NgWkHL0tD22r2cRgy-1" source="o-2NgWkHL0tD22r2cRgy-19" target="o-2NgWkHL0tD22r2cRgy-18">
          <mxGeometry width="50" height="50" relative="1" as="geometry">
            <mxPoint x="170" y="200" as="sourcePoint" />
            <mxPoint x="220" y="150" as="targetPoint" />
          </mxGeometry>
        </mxCell>
        <mxCell id="o-2NgWkHL0tD22r2cRgy-27" value="" style="edgeStyle=segmentEdgeStyle;endArrow=classic;html=1;rounded=0;entryX=0;entryY=0.5;entryDx=0;entryDy=0;exitX=1;exitY=0.5;exitDx=0;exitDy=0;" edge="1" parent="o-2NgWkHL0tD22r2cRgy-1" source="o-2NgWkHL0tD22r2cRgy-8" target="o-2NgWkHL0tD22r2cRgy-20">
          <mxGeometry width="50" height="50" relative="1" as="geometry">
            <mxPoint x="-170" y="340" as="sourcePoint" />
            <mxPoint x="-120" y="290" as="targetPoint" />
          </mxGeometry>
        </mxCell>
        <mxCell id="o-2NgWkHL0tD22r2cRgy-28" value="" style="edgeStyle=segmentEdgeStyle;endArrow=classic;html=1;rounded=0;entryX=0;entryY=0.5;entryDx=0;entryDy=0;exitX=1;exitY=0.444;exitDx=0;exitDy=0;exitPerimeter=0;" edge="1" parent="o-2NgWkHL0tD22r2cRgy-1" source="o-2NgWkHL0tD22r2cRgy-12" target="o-2NgWkHL0tD22r2cRgy-10">
          <mxGeometry width="50" height="50" relative="1" as="geometry">
            <mxPoint x="170" y="200" as="sourcePoint" />
            <mxPoint x="220" y="150" as="targetPoint" />
          </mxGeometry>
        </mxCell>
        <mxCell id="o-2NgWkHL0tD22r2cRgy-21" value="" style="edgeStyle=segmentEdgeStyle;endArrow=classic;html=1;rounded=0;exitX=1;exitY=0.5;exitDx=0;exitDy=0;" edge="1" parent="1" source="o-2NgWkHL0tD22r2cRgy-6">
          <mxGeometry width="50" height="50" relative="1" as="geometry">
            <mxPoint x="390" y="350" as="sourcePoint" />
            <mxPoint x="380" y="220" as="targetPoint" />
          </mxGeometry>
        </mxCell>
      </root>
    </mxGraphModel>
  </diagram>
</mxfile>
